PathFileType	4	(x/y/z)	S06_P20_T62
DataRate	CameraRate	NumFrames	NumMarkers	Units	OrigDataRate	OrigDataStartFrame	OrigNumFrames
240	240	9	51	mm	240	217	347
Frame#	Time	Sternum			R.Acromium			L.Acromium			Top.Head			R.ASIS			L.ASIS			R.PSIS			L.PSIS			R.Great.Tro			L.Great.Tro			R.Iliac.Crest			L.Iliac.Crest			V.Sacral			R.Thigh.Upper.Post			R.Thigh.Lower.Ant			R.Thigh.Lower.Post			R.Thigh.Upper.Ant			R.Knee.Lat			R.Knee.Med			R.Shank.Upper.Post			R.Shank.Lower.Ant			R.Shank.Lower.Post			R.Shank.Upper.Ant			R.Ankle.Lat			R.Ankle.Med			R.Heel.Upper			R.Heel.Med			R.Heel.Lat			R.Toe.Lat			R.Toe.Med			R.Toe.Tip			L.Thigh.Upper.Post			L.Thigh.Lower.Ant			L.Thigh.Lower.Post			L.Thigh.Upper.Ant			L.Knee.Lat			L.Knee.Med			L.Shank.Upper.Post			L.Shank.Lower.Ant			L.Shank.Lower.Post			L.Shank.Upper.Ant			L.Ankle.Lat			L.Ankle.Med			L.Heel.Upper			L.Heel.Med			L.Heel.Lat			L.Toe.Lat			L.Toe.Med			L.Toe.Tip			Cervical.Spine			Back			
		X1	Y1	Z1	X2	Y2	Z2	X3	Y3	Z3	X4	Y4	Z4	X5	Y5	Z5	X6	Y6	Z6	X7	Y7	Z7	X8	Y8	Z8	X9	Y9	Z9	X10	Y10	Z10	X11	Y11	Z11	X12	Y12	Z12	X13	Y13	Z13	X14	Y14	Z14	X15	Y15	Z15	X16	Y16	Z16	X17	Y17	Z17	X18	Y18	Z18	X19	Y19	Z19	X20	Y20	Z20	X21	Y21	Z21	X22	Y22	Z22	X23	Y23	Z23	X24	Y24	Z24	X25	Y25	Z25	X26	Y26	Z26	X27	Y27	Z27	X28	Y28	Z28	X29	Y29	Z29	X30	Y30	Z30	X31	Y31	Z31	X32	Y32	Z32	X33	Y33	Z33	X34	Y34	Z34	X35	Y35	Z35	X36	Y36	Z36	X37	Y37	Z37	X38	Y38	Z38	X39	Y39	Z39	X40	Y40	Z40	X41	Y41	Z41	X42	Y42	Z42	X43	Y43	Z43	X44	Y44	Z44	X45	Y45	Z45	X46	Y46	Z46	X47	Y47	Z47	X48	Y48	Z48	X49	Y49	Z49	X50	Y50	Z50	X51	Y51	Z51	

217	0.9	-106.07	1273	347.92	-220.05	1485.7	520.09	-238.8	1480.6	167.06	-237.4	1799.3	333.48	-166.9	1037.3	476.78	-157.9	1036.1	222.08	NaN	NaN	NaN	-360.63	1066	296.21	-233.58	974.52	523.19	-243.39	966.69	165.04	-247.49	1116.8	504.1	-227.76	1109.6	184.17	-374.21	1031.4	340.17	-270.1	725.13	504.48	-226.65	638.72	470.32	-294.47	641.6	483.36	-197.47	722.87	490.37	-300.75	526.71	464.35	-289.83	535.15	336.38	-427.7	330.27	451.77	-397.88	248.76	425.96	-461.18	262.86	433.29	-363.94	316.07	445.5	-483.99	125.65	402.16	-466.48	130.51	313.74	-560.33	99.974	348.36	-555.33	67.881	318.17	-557.94	67.83	382.94	-385.55	34.959	430.19	-355.48	41.775	309.27	-289.73	44.375	357.93	-99.38	730.72	185.73	-30.806	674.44	251.34	-87.315	642.15	205.81	-52.608	764.91	229.11	-70.048	553.23	225.81	-47.751	568.73	346.44	-57.858	323.84	239.95	20.109	280.17	238.09	-43.64	253.45	258.32	2.8719	348.43	226.17	42.23	122.6	255.39	51.851	136.76	346.48	-14.674	61.152	306.95	3.6162	40.815	341.36	2.1061	36.343	279.69	168.38	93.916	231.19	186.72	118.69	346.16	244.14	155.52	288.09	-286.09	1537.7	346.47	-346.25	1266.7	349.89
218	0.90417	-100.33	1272.4	347.68	-214.52	1485.1	519.88	-233.25	1480	166.8	-231.95	1798.7	333.34	-161.1	1036.7	476.65	-151.89	1035.3	221.91	NaN	NaN	NaN	-354.68	1065.2	295.83	-227.86	974.02	522.97	-237.31	965.93	164.9	-241.75	1116.2	503.84	-221.78	1108.8	183.89	-368.28	1030.7	339.78	-264.24	724.64	504.47	-220.67	638.16	470.66	-288.53	641.04	483.46	-191.54	722.39	490.57	-295	526.14	464.61	-283.9	534.46	336.71	-423.97	331.08	451.92	-395.06	249.24	426.09	-458.21	264.07	433.37	-360.45	316.18	445.59	-482.62	127.13	402.16	-465.15	131.85	313.75	-559.13	102.43	348.39	-554.58	70.36	318.16	-557.17	70.238	382.92	-385.36	35.034	430.07	-355.22	41.667	309.13	-289.57	44.011	357.8	-94.031	729.66	186.03	-25.383	673.41	251.59	-82.225	641.15	206.45	-46.929	763.86	229.02	-64.89	552.25	226.4	-42.418	568	346.98	-53	322.84	240.48	24.862	279.05	239.2	-39.04	252.45	258.91	7.8481	347.33	227.2	46.607	121.71	256.44	55.677	135.71	347.66	-10.583	60.928	307.54	7.1852	40.398	341.94	6.0798	36.099	280.3	172.84	92.748	233.08	190.3	117.35	348.15	248.23	154.1	290.57	-280.54	1537	346.24	-340.5	1266	349.59
219	0.90833	-94.583	1271.8	347.42	-208.99	1484.4	519.64	-227.7	1479.4	166.52	-226.5	1798.2	333.19	-155.31	1036.2	476.51	-145.84	1034.6	221.75	NaN	NaN	NaN	-348.72	1064.5	295.46	-222.12	973.55	522.74	-231.19	965.19	164.77	-236.01	1115.6	503.58	-215.78	1108.1	183.61	-362.34	1029.9	339.39	-258.26	724.16	504.5	-214.51	637.62	471.07	-282.41	640.46	483.59	-185.48	721.96	490.81	-289.02	525.57	464.95	-277.7	533.73	337.1	-420.07	331.97	452.12	-392.08	249.79	426.27	-455.07	265.38	433.5	-356.79	316.35	445.75	-481.12	128.72	402.22	-463.64	133.3	313.82	-557.78	105.1	348.47	-553.71	73.067	318.19	-556.29	72.848	382.93	-385.15	35.114	429.95	-354.95	41.593	309	-289.43	43.669	357.67	-88.636	728.63	186.35	-19.907	672.39	251.84	-77.103	640.17	207.11	-41.172	762.83	228.92	-59.709	551.3	226.97	-37.1	567.26	347.5	-48.359	321.87	240.99	29.348	277.88	240.32	-34.742	251.46	259.47	12.637	346.2	228.24	50.523	120.79	257.47	59.029	134.56	348.84	-7.0408	60.799	308.06	10.136	40.018	342.45	9.4516	35.941	280.83	176.78	91.383	234.97	193.35	115.7	350.17	251.88	152.31	293.11	-274.98	1536.5	346	-334.75	1265.3	349.27
220	0.9125	-88.839	1271.3	347.15	-203.47	1483.8	519.4	-222.15	1478.9	166.23	-221.04	1797.6	333.05	-149.52	1035.8	476.37	-139.77	1034	221.58	NaN	NaN	NaN	-342.74	1063.7	295.07	-216.38	973.11	522.49	-225.04	964.48	164.64	-230.27	1115.1	503.31	-209.75	1107.4	183.33	-356.39	1029.2	338.99	-252.14	723.67	504.55	-208.16	637.09	471.56	-276.1	639.86	483.77	-179.29	721.56	491.1	-282.81	524.99	465.36	-271.22	532.97	337.57	-415.97	332.94	452.38	-388.94	250.42	426.52	-451.76	266.8	433.68	-352.96	316.58	445.97	-479.49	130.42	402.35	-461.95	134.88	313.96	-556.27	107.98	348.6	-552.71	76.016	318.25	-555.29	75.672	382.98	-384.92	35.203	429.83	-354.67	41.558	308.88	-289.29	43.346	357.55	-83.204	727.63	186.69	-14.396	671.37	252.08	-71.963	639.22	207.77	-35.351	761.8	228.82	-54.524	550.37	227.54	-31.814	566.51	348	-43.923	320.93	241.48	33.583	276.67	241.43	-30.725	250.48	260.01	17.244	345.03	229.28	54.018	119.83	258.5	61.962	133.33	350.01	-3.9916	60.76	308.53	12.535	39.676	342.88	12.279	35.863	281.28	180.26	89.842	236.84	195.95	113.78	352.19	255.13	150.2	295.68	-269.43	1535.9	345.74	-329	1264.6	348.93
221	0.91667	-83.094	1270.8	346.88	-197.97	1483.2	519.13	-216.6	1478.4	165.93	-215.57	1797.2	332.89	-143.73	1035.4	476.21	-133.66	1033.4	221.41	NaN	NaN	NaN	-336.75	1063.1	294.67	-210.62	972.69	522.23	-218.87	963.79	164.53	-224.53	1114.6	503.03	-203.7	1106.7	183.04	-350.42	1028.5	338.58	-245.88	723.17	504.65	-201.6	636.58	472.12	-269.61	639.25	483.99	-172.96	721.2	491.44	-276.36	524.41	465.85	-264.45	532.17	338.13	-411.66	334	452.7	-385.62	251.14	426.85	-448.26	268.33	433.92	-348.95	316.87	446.25	-477.7	132.25	402.55	-460.05	136.58	314.16	-554.56	111.1	348.79	-551.55	79.221	318.35	-554.14	78.725	383.08	-384.67	35.307	429.73	-354.37	41.565	308.77	-289.17	43.041	357.43	-77.744	726.66	187.05	-8.8686	670.36	252.33	-66.819	638.3	208.44	-29.483	760.78	228.72	-49.355	549.45	228.1	-26.58	565.75	348.49	-39.679	320.01	241.96	37.588	275.42	242.55	-26.96	249.52	260.53	21.677	343.85	230.32	57.136	118.85	259.51	64.53	132.03	351.17	-1.3782	60.804	308.95	14.453	39.373	343.24	14.623	35.86	281.67	183.31	88.149	238.68	198.15	111.62	354.17	258.02	147.79	298.24	-263.89	1535.4	345.46	-323.26	1264	348.57
222	0.92083	-77.35	1270.4	346.6	-192.48	1482.6	518.85	-211.05	1477.9	165.61	-210.09	1796.8	332.73	-137.95	1035.1	476.05	-127.53	1032.8	221.24	NaN	NaN	NaN	-330.74	1062.4	294.26	-204.85	972.31	521.96	-212.66	963.14	164.42	-218.8	1114.2	502.74	-197.62	1106.1	182.74	-344.46	1027.9	338.15	-239.49	722.68	504.78	-194.84	636.08	472.77	-262.92	638.61	484.27	-166.48	720.88	491.83	-269.65	523.82	466.41	-257.36	531.33	338.78	-407.14	335.16	453.08	-382.12	251.96	427.25	-444.57	269.97	434.21	-344.74	317.23	446.61	-475.75	134.21	402.82	-457.93	138.41	314.43	-552.65	114.45	349.03	-550.21	82.698	318.49	-552.83	82.019	383.21	-384.41	35.431	429.62	-354.05	41.619	308.68	-289.05	42.752	357.3	-72.269	725.71	187.42	-3.3425	669.34	252.57	-61.682	637.41	209.1	-23.586	759.75	228.64	-44.218	548.56	228.65	-21.413	564.99	348.97	-35.611	319.12	242.44	41.384	274.14	243.66	-23.418	248.57	261.05	25.946	342.64	231.35	59.923	117.86	260.5	66.792	130.67	352.32	0.85785	60.924	309.33	15.958	39.111	343.56	16.546	35.926	282	185.97	86.33	240.46	200.02	109.24	356.09	260.61	145.13	300.74	-258.35	1534.9	345.16	-317.51	1263.4	348.19
223	0.925	-71.607	1270	346.32	-187	1482.1	518.55	-205.49	1477.5	165.27	-204.61	1796.4	332.57	-132.17	1034.8	475.87	-121.36	1032.3	221.06	NaN	NaN	NaN	-324.72	1061.8	293.84	-199.07	971.96	521.67	-206.43	962.52	164.3	-213.07	1113.8	502.45	-191.52	1105.5	182.44	-338.48	1027.3	337.72	-232.94	722.18	504.95	-187.87	635.61	473.49	-256.03	637.96	484.6	-159.86	720.6	492.27	-262.68	523.23	467.06	-249.95	530.45	339.51	-402.39	336.42	453.53	-378.41	252.87	427.73	-440.65	271.74	434.56	-340.32	317.66	447.05	-473.61	136.3	403.17	-455.55	140.37	314.77	-550.5	118.06	349.33	-548.67	86.461	318.67	-551.33	85.567	383.39	-384.11	35.585	429.53	-353.7	41.726	308.61	-288.94	42.475	357.18	-66.789	724.8	187.8	2.1646	668.33	252.83	-56.564	636.53	209.75	-17.676	758.74	228.57	-39.13	547.69	229.18	-16.329	564.21	349.43	-31.703	318.25	242.93	44.995	272.85	244.75	-20.071	247.64	261.57	30.062	341.44	232.38	62.425	116.86	261.47	68.802	129.29	353.45	2.7729	61.113	309.68	17.118	38.892	343.83	18.106	36.056	282.28	188.28	84.412	242.15	201.61	106.7	357.92	262.93	142.26	303.16	-252.82	1534.5	344.85	-311.77	1262.8	347.79
224	0.92917	-65.865	1269.6	346.05	-181.55	1481.6	518.24	-199.93	1477.2	164.92	-199.13	1796.1	332.41	-126.41	1034.5	475.69	-115.18	1031.9	220.88	NaN	NaN	NaN	-318.68	1061.3	293.41	-193.27	971.63	521.36	-200.19	961.94	164.19	-207.36	1113.5	502.15	-185.4	1105	182.13	-332.51	1026.8	337.26	-226.25	721.68	505.17	-180.68	635.16	474.31	-248.93	637.29	485	-153.1	720.36	492.75	-255.44	522.64	467.8	-242.21	529.53	340.34	-397.39	337.78	454.04	-374.49	253.88	428.28	-436.52	273.63	434.97	-335.66	318.17	447.58	-471.26	138.53	403.6	-452.92	142.48	315.19	-548.08	121.93	349.69	-546.91	90.521	318.9	-549.62	89.382	383.61	-383.79	35.776	429.44	-353.32	41.891	308.55	-288.84	42.21	357.06	-61.316	723.91	188.17	7.6366	667.3	253.08	-51.475	635.69	210.38	-11.772	757.72	228.52	-34.103	546.83	229.7	-11.342	563.43	349.89	-27.935	317.42	243.42	48.446	271.56	245.83	-16.889	246.74	262.09	34.04	340.24	233.38	64.687	115.87	262.42	70.614	127.89	354.54	4.4195	61.364	310	17.997	38.721	344.06	19.362	36.244	282.53	190.29	82.42	243.74	202.99	104.03	359.64	265.04	139.21	305.44	-247.3	1534.1	344.51	-306.04	1262.3	347.37
225	0.93333	-60.125	1269.4	345.78	-176.11	1481.2	517.91	-194.36	1476.9	164.55	-193.63	1795.8	332.23	-120.66	1034.3	475.49	-108.98	1031.5	220.7	NaN	NaN	NaN	-312.65	1060.8	292.95	-187.47	971.32	521.04	-193.92	961.41	164.07	-201.66	1113.2	501.84	-179.25	1104.5	181.82	-326.54	1026.3	336.79	-219.39	721.17	505.44	-173.27	634.73	475.2	-241.62	636.6	485.45	-146.18	720.16	493.29	-247.93	522.04	468.62	-234.13	528.57	341.25	-392.14	339.25	454.63	-370.33	255	428.92	-432.13	275.64	435.44	-330.76	318.75	448.19	-468.68	140.91	404.12	-450.01	144.73	315.69	-545.38	126.07	350.13	-544.89	94.888	319.18	-547.68	93.473	383.89	-383.43	36.016	429.36	-352.89	42.123	308.5	-288.74	41.952	356.93	-55.858	723.05	188.55	13.06	666.29	253.34	-46.423	634.87	210.99	-5.8905	756.72	228.49	-29.146	546.01	230.21	-6.4619	562.66	350.33	-24.29	316.62	243.92	51.759	270.28	246.87	-13.841	245.87	262.61	37.894	339.05	234.36	66.753	114.9	263.33	72.273	126.49	355.6	5.8454	61.672	310.3	18.651	38.598	344.27	20.366	36.484	282.74	192.03	80.378	245.21	204.2	101.25	361.23	266.97	136.02	307.57	-241.78	1533.8	344.16	-300.3	1261.9	346.94
